<svg id="Layer_1" data-name="Layer 1" xmlns="http://www.w3.org/2000/svg" viewBox="0 0 960 216"><defs><style>.cls-1{fill:#353535;}.cls-2{fill:#4ccaf3;}.cls-3{fill:#1dafec;}.cls-4{fill:#2c8dca;}.cls-5{fill:#193b64;}</style></defs><polygon class="cls-1" points="297.99 34.61 323.4 34.61 323.4 115.89 360.86 73.89 392.81 73.89 349.16 122.72 398.03 175.72 366.48 175.72 323.4 128.79 323.4 175.72 297.99 175.72 297.99 34.61"/><path class="cls-1" d="M478.53,73.89H504V175.75H478.53V164.92a50.44,50.44,0,0,1-15,10.24,41.67,41.67,0,0,1-16.26,3,45,45,0,0,1-34-15.31,53.52,53.52,0,0,1-14.35-38q0-23.56,13.88-38.64a44.11,44.11,0,0,1,33.68-15,43,43,0,0,1,17.19,3.45A46.68,46.68,0,0,1,478.51,85Zm-26.73,21a25.52,25.52,0,0,0-19.64,8.38,30.11,30.11,0,0,0-7.78,21.47,30.53,30.53,0,0,0,7.93,21.7,25.62,25.62,0,0,0,19.55,8.52,26.24,26.24,0,0,0,19.86-8.36,30.69,30.69,0,0,0,7.91-22,29.81,29.81,0,0,0-7.91-21.53,26.46,26.46,0,0,0-19.92-8.23"/><rect class="cls-1" x="527.85" y="34.61" width="25.43" height="141.11"/><path class="cls-1" d="M577.26,73.89H603V123A69.29,69.29,0,0,0,605,142.86a17.69,17.69,0,0,0,6.32,8.66,18.09,18.09,0,0,0,10.69,3,18.56,18.56,0,0,0,10.79-3,17.79,17.79,0,0,0,6.59-9,69.84,69.84,0,0,0,1.58-18.8V73.89h25.39v43.16q0,26.67-4.19,36.5a39.81,39.81,0,0,1-15,18.41,46.25,46.25,0,0,1-25.33,6.46,45,45,0,0,1-27-7.49,39.55,39.55,0,0,1-14.46-21q-3-9.25-3-33.7Z"/><path class="cls-1" d="M691.86,73.89h25.43V84.36A61.63,61.63,0,0,1,733,74.1a37.53,37.53,0,0,1,14.37-3,34.64,34.64,0,0,1,25.57,10.56q9,9,9,26.61v67.29H756.61V131.13a112.8,112.8,0,0,0-1.62-24.2,16.73,16.73,0,0,0-5.66-9.13,15.93,15.93,0,0,0-10-3A18.71,18.71,0,0,0,726.09,100a27.67,27.67,0,0,0-7.67,14.35A115.07,115.07,0,0,0,717.29,135v40.86H691.86Z"/><path class="cls-1" d="M881.34,73.89h25.37v87.25q0,25.77-10.37,38-13.9,16.5-42,16.46a72.8,72.8,0,0,1-25.07-3.69,43.79,43.79,0,0,1-27.46-28.63h28a23.13,23.13,0,0,0,9.63,6.49A39.37,39.37,0,0,0,853.28,192a36.46,36.46,0,0,0,16.5-3.21,18.83,18.83,0,0,0,8.81-8.22q2.58-5,2.55-17.41a42,42,0,0,1-14,9.7,44.86,44.86,0,0,1-16.68,3A45.68,45.68,0,0,1,815.94,161a52,52,0,0,1-14.07-37.43q0-24.22,15-38.93A44.47,44.47,0,0,1,849.1,71.4a43.15,43.15,0,0,1,16.52,3.2,52.08,52.08,0,0,1,15.72,10.55ZM854.92,95.14a26.41,26.41,0,0,0-19.85,8.11,28,28,0,0,0-7.8,20.33,28.43,28.43,0,0,0,8,21,27,27,0,0,0,20.15,8.1,25.9,25.9,0,0,0,19.51-8.08,31.86,31.86,0,0,0,0-41.56A26.7,26.7,0,0,0,855,95"/><rect class="cls-1" x="930.5" y="73.89" width="25.42" height="101.83"/><path class="cls-1" d="M959.88,39.74a16.47,16.47,0,1,1-16.47-16.47h0a16.47,16.47,0,0,1,16.47,16.47h0"/><path class="cls-2" d="M214.73,107.73c0,56-46.7,101.32-104.31,101.32S6.12,163.69,6.12,107.73,52.82,6.4,110.42,6.4,214.73,51.77,214.73,107.73"/><path class="cls-3" d="M180,141.5c0,37.31-31.14,67.55-69.54,67.55S40.89,178.81,40.89,141.5,72,74,110.43,74,180,104.2,180,141.5"/><path class="cls-4" d="M152.92,167.77c0,22.8-19,41.28-42.5,41.28s-42.49-18.48-42.49-41.28,19-41.28,42.49-41.28,42.5,18.49,42.5,41.28"/><path class="cls-5" d="M131.68,188.53c0,11.4-9.52,20.65-21.26,20.65s-21.24-9.25-21.24-20.65,9.52-20.64,21.24-20.64,21.26,9.23,21.26,20.64"/></svg>